<?xml version="1.0" encoding="UTF-8"?>
<svg width="391px" height="249px" viewBox="0 0 391 249" version="1.1" xmlns="http://www.w3.org/2000/svg" xmlns:xlink="http://www.w3.org/1999/xlink">
    <!-- Generator: Sketch 64 (93537) - https://sketch.com -->
    <title>Group 20</title>
    <desc>Created with Sketch.</desc>
    <defs>
        <text id="text-1" font-family="Starlord" font-size="36" font-weight="normal" letter-spacing="0.9" fill="#FED69F" fill-opacity="0.692826705">
            <tspan x="0" y="33">MIXTAPES</tspan>
        </text>
        <filter x="-1.1%" y="-4.8%" width="102.2%" height="109.5%" filterUnits="objectBoundingBox" id="filter-2">
            <feMorphology radius="1" operator="erode" in="SourceAlpha" result="shadowSpreadInner1"></feMorphology>
            <feOffset dx="0" dy="1" in="shadowSpreadInner1" result="shadowOffsetInner1"></feOffset>
            <feComposite in="shadowOffsetInner1" in2="SourceAlpha" operator="arithmetic" k2="-1" k3="1" result="shadowInnerInner1"></feComposite>
            <feColorMatrix values="0 0 0 0 0.996078431   0 0 0 0 0.482352941   0 0 0 0 0.494117647  0 0 0 1 0" type="matrix" in="shadowInnerInner1"></feColorMatrix>
        </filter>
        <filter x="-1.1%" y="-4.8%" width="102.2%" height="109.5%" filterUnits="objectBoundingBox" id="filter-3">
            <feMorphology radius="1" operator="erode" in="SourceAlpha" result="shadowSpreadInner1"></feMorphology>
            <feOffset dx="0" dy="1" in="shadowSpreadInner1" result="shadowOffsetInner1"></feOffset>
            <feComposite in="shadowOffsetInner1" in2="SourceAlpha" operator="arithmetic" k2="-1" k3="1" result="shadowInnerInner1"></feComposite>
            <feColorMatrix values="0 0 0 0 0.996078431   0 0 0 0 0.482352941   0 0 0 0 0.494117647  0 0 0 1 0" type="matrix" in="shadowInnerInner1"></feColorMatrix>
        </filter>
        <text id="text-4" font-family="Starlord" font-size="14" font-weight="normal" letter-spacing="0.35" fill="#FED69F" fill-opacity="0.692826705">
            <tspan x="8" y="13">OF</tspan>
        </text>
        <filter x="-3.5%" y="-4.4%" width="107.0%" height="108.7%" filterUnits="objectBoundingBox" id="filter-5">
            <feOffset dx="0" dy="0" in="SourceAlpha" result="shadowOffsetInner1"></feOffset>
            <feComposite in="shadowOffsetInner1" in2="SourceAlpha" operator="arithmetic" k2="-1" k3="1" result="shadowInnerInner1"></feComposite>
            <feColorMatrix values="0 0 0 0 0.996078431   0 0 0 0 0.482352941   0 0 0 0 0.494117647  0 0 0 1 0" type="matrix" in="shadowInnerInner1"></feColorMatrix>
        </filter>
        <filter x="-3.5%" y="-4.4%" width="107.0%" height="108.7%" filterUnits="objectBoundingBox" id="filter-6">
            <feOffset dx="0" dy="0" in="SourceAlpha" result="shadowOffsetInner1"></feOffset>
            <feComposite in="shadowOffsetInner1" in2="SourceAlpha" operator="arithmetic" k2="-1" k3="1" result="shadowInnerInner1"></feComposite>
            <feColorMatrix values="0 0 0 0 0.996078431   0 0 0 0 0.482352941   0 0 0 0 0.494117647  0 0 0 1 0" type="matrix" in="shadowInnerInner1"></feColorMatrix>
        </filter>
        <text id="text-7" font-family="Starlord" font-size="14" font-weight="normal" letter-spacing="0.35" fill="#FED69F" fill-opacity="0.692826705">
            <tspan x="0" y="24">THE</tspan>
        </text>
        <filter x="-2.4%" y="-4.4%" width="104.8%" height="108.7%" filterUnits="objectBoundingBox" id="filter-8">
            <feOffset dx="0" dy="0" in="SourceAlpha" result="shadowOffsetInner1"></feOffset>
            <feComposite in="shadowOffsetInner1" in2="SourceAlpha" operator="arithmetic" k2="-1" k3="1" result="shadowInnerInner1"></feComposite>
            <feColorMatrix values="0 0 0 0 0.996078431   0 0 0 0 0.482352941   0 0 0 0 0.494117647  0 0 0 1 0" type="matrix" in="shadowInnerInner1"></feColorMatrix>
        </filter>
        <filter x="-2.4%" y="-4.4%" width="104.8%" height="108.7%" filterUnits="objectBoundingBox" id="filter-9">
            <feOffset dx="0" dy="0" in="SourceAlpha" result="shadowOffsetInner1"></feOffset>
            <feComposite in="shadowOffsetInner1" in2="SourceAlpha" operator="arithmetic" k2="-1" k3="1" result="shadowInnerInner1"></feComposite>
            <feColorMatrix values="0 0 0 0 0.996078431   0 0 0 0 0.482352941   0 0 0 0 0.494117647  0 0 0 1 0" type="matrix" in="shadowInnerInner1"></feColorMatrix>
        </filter>
        <text id="text-10" font-family="Starlord" font-size="36" font-weight="normal" letter-spacing="0.9" fill="#FED69F" fill-opacity="0.692826705">
            <tspan x="29" y="33">DESIGN</tspan>
        </text>
        <filter x="-1.5%" y="-4.8%" width="103.0%" height="109.5%" filterUnits="objectBoundingBox" id="filter-11">
            <feMorphology radius="1" operator="erode" in="SourceAlpha" result="shadowSpreadInner1"></feMorphology>
            <feOffset dx="0" dy="1" in="shadowSpreadInner1" result="shadowOffsetInner1"></feOffset>
            <feComposite in="shadowOffsetInner1" in2="SourceAlpha" operator="arithmetic" k2="-1" k3="1" result="shadowInnerInner1"></feComposite>
            <feColorMatrix values="0 0 0 0 0.996078431   0 0 0 0 0.482352941   0 0 0 0 0.494117647  0 0 0 1 0" type="matrix" in="shadowInnerInner1"></feColorMatrix>
        </filter>
        <filter x="-1.5%" y="-4.8%" width="103.0%" height="109.5%" filterUnits="objectBoundingBox" id="filter-12">
            <feMorphology radius="1" operator="erode" in="SourceAlpha" result="shadowSpreadInner1"></feMorphology>
            <feOffset dx="0" dy="1" in="shadowSpreadInner1" result="shadowOffsetInner1"></feOffset>
            <feComposite in="shadowOffsetInner1" in2="SourceAlpha" operator="arithmetic" k2="-1" k3="1" result="shadowInnerInner1"></feComposite>
            <feColorMatrix values="0 0 0 0 0.996078431   0 0 0 0 0.482352941   0 0 0 0 0.494117647  0 0 0 1 0" type="matrix" in="shadowInnerInner1"></feColorMatrix>
        </filter>
        <path d="M140.006609,229 C137.983734,229.00264 136.158574,227.786125 135.382621,225.917991 C134.606667,224.049858 135.032825,221.898229 136.462279,220.466904 C137.891732,219.03558 140.042802,218.606608 141.911949,219.380117 C143.781097,220.153626 145,221.977193 145,224.000069 C144.99641,226.757414 142.763947,228.992799 140.006609,229 L140.006609,229 Z" id="path-13"></path>
        <filter x="-75.0%" y="-55.0%" width="250.0%" height="250.0%" filterUnits="objectBoundingBox" id="filter-14">
            <feMorphology radius="0.5" operator="dilate" in="SourceAlpha" result="shadowSpreadOuter1"></feMorphology>
            <feOffset dx="0" dy="2" in="shadowSpreadOuter1" result="shadowOffsetOuter1"></feOffset>
            <feGaussianBlur stdDeviation="2" in="shadowOffsetOuter1" result="shadowBlurOuter1"></feGaussianBlur>
            <feComposite in="shadowBlurOuter1" in2="SourceAlpha" operator="out" result="shadowBlurOuter1"></feComposite>
            <feColorMatrix values="0 0 0 0 0   0 0 0 0 0   0 0 0 0 0  0 0 0 0.5 0" type="matrix" in="shadowBlurOuter1"></feColorMatrix>
        </filter>
        <path d="M100.006605,235 C97.9831359,235.002639 96.1575632,233.785416 95.3819937,231.916479 C94.6064242,230.047542 95.0337811,227.895401 96.4645908,226.464591 C97.8954005,225.033781 100.047542,224.606424 101.916479,225.381994 C103.785416,226.157563 105.002639,227.983136 105,230.006605 C104.996395,232.762886 102.762886,234.996395 100.006605,235 Z" id="path-15"></path>
        <filter x="-75.0%" y="-55.0%" width="250.0%" height="250.0%" filterUnits="objectBoundingBox" id="filter-16">
            <feMorphology radius="0.5" operator="dilate" in="SourceAlpha" result="shadowSpreadOuter1"></feMorphology>
            <feOffset dx="0" dy="2" in="shadowSpreadOuter1" result="shadowOffsetOuter1"></feOffset>
            <feGaussianBlur stdDeviation="2" in="shadowOffsetOuter1" result="shadowBlurOuter1"></feGaussianBlur>
            <feComposite in="shadowBlurOuter1" in2="SourceAlpha" operator="out" result="shadowBlurOuter1"></feComposite>
            <feColorMatrix values="0 0 0 0 0   0 0 0 0 0   0 0 0 0 0  0 0 0 0.5 0" type="matrix" in="shadowBlurOuter1"></feColorMatrix>
        </filter>
        <path d="M248,223.99337 C248.002643,226.420702 246.542491,228.610495 244.300689,229.541229 C242.058886,230.471963 239.477145,229.960253 237.759825,228.244806 C236.042505,226.529358 235.527978,223.948176 236.456265,221.705359 C237.384553,219.462542 239.572752,218 242.000084,218 C245.311191,218 247.996386,220.682265 248,223.99337 Z" id="path-17"></path>
        <filter x="-62.5%" y="-45.8%" width="225.0%" height="225.0%" filterUnits="objectBoundingBox" id="filter-18">
            <feMorphology radius="0.5" operator="dilate" in="SourceAlpha" result="shadowSpreadOuter1"></feMorphology>
            <feOffset dx="0" dy="2" in="shadowSpreadOuter1" result="shadowOffsetOuter1"></feOffset>
            <feGaussianBlur stdDeviation="2" in="shadowOffsetOuter1" result="shadowBlurOuter1"></feGaussianBlur>
            <feComposite in="shadowBlurOuter1" in2="SourceAlpha" operator="out" result="shadowBlurOuter1"></feComposite>
            <feColorMatrix values="0 0 0 0 0   0 0 0 0 0   0 0 0 0 0  0 0 0 0.5 0" type="matrix" in="shadowBlurOuter1"></feColorMatrix>
        </filter>
        <path d="M289,231 C289,234.313708 286.313708,237 283,237 C279.686292,237 277,234.313708 277,231 C277,227.686292 279.686292,225 283,225 C286.313708,225 289,227.686292 289,231 Z" id="path-19"></path>
        <filter x="-62.5%" y="-45.8%" width="225.0%" height="225.0%" filterUnits="objectBoundingBox" id="filter-20">
            <feMorphology radius="0.5" operator="dilate" in="SourceAlpha" result="shadowSpreadOuter1"></feMorphology>
            <feOffset dx="0" dy="2" in="shadowSpreadOuter1" result="shadowOffsetOuter1"></feOffset>
            <feGaussianBlur stdDeviation="2" in="shadowOffsetOuter1" result="shadowBlurOuter1"></feGaussianBlur>
            <feComposite in="shadowBlurOuter1" in2="SourceAlpha" operator="out" result="shadowBlurOuter1"></feComposite>
            <feColorMatrix values="0 0 0 0 0   0 0 0 0 0   0 0 0 0 0  0 0 0 0.5 0" type="matrix" in="shadowBlurOuter1"></feColorMatrix>
        </filter>
        <path d="M195,233.99337 C195.002643,236.420702 193.542491,238.610495 191.300689,239.541229 C189.058886,240.471963 186.477145,239.960253 184.759825,238.244806 C183.042505,236.529358 182.527978,233.948176 183.456265,231.705359 C184.384553,229.462542 186.572752,228 189.000084,228 C192.311191,228 194.996386,230.682265 195,233.99337 Z" id="path-21"></path>
        <filter x="-62.5%" y="-45.8%" width="225.0%" height="225.0%" filterUnits="objectBoundingBox" id="filter-22">
            <feMorphology radius="0.5" operator="dilate" in="SourceAlpha" result="shadowSpreadOuter1"></feMorphology>
            <feOffset dx="0" dy="2" in="shadowSpreadOuter1" result="shadowOffsetOuter1"></feOffset>
            <feGaussianBlur stdDeviation="2" in="shadowOffsetOuter1" result="shadowBlurOuter1"></feGaussianBlur>
            <feComposite in="shadowBlurOuter1" in2="SourceAlpha" operator="out" result="shadowBlurOuter1"></feComposite>
            <feColorMatrix values="0 0 0 0 0   0 0 0 0 0   0 0 0 0 0  0 0 0 0.5 0" type="matrix" in="shadowBlurOuter1"></feColorMatrix>
        </filter>
    </defs>
    <g id="Page-1" stroke="none" stroke-width="1" fill="none" fill-rule="evenodd">
        <g id="Group-20">
            <g id="Group-7">
                <g id="Group-6">
                    <polygon id="Path" fill="#000000" fill-rule="nonzero" points="385.258181 228.861789 5.74181911 228.861789 0 224.669663 0 179.861789 391 179.861789 391 224.669663"></polygon>
                    <rect id="Rectangle" fill="#FECE8C" fill-rule="nonzero" opacity="0.835867746" x="0" y="0" width="390.815567" height="246" rx="20.67"></rect>
                    <rect id="Rectangle" fill="#FECE8C" fill-rule="nonzero" opacity="0.835867746" x="0" y="0" width="390.815567" height="246" rx="22"></rect>
                    <rect id="Rectangle" fill="#FECE8C" fill-rule="nonzero" opacity="0.835867746" x="0" y="41" width="390.815567" height="34"></rect>
                    <g id="Group-3" transform="translate(104.000000, 6.000000)" stroke="#FE7B7E">
                        <g id="MIXTAPES" stroke-width="2">
                            <use fill="#FED69F" fill-opacity="0.692826705" stroke-opacity="1" filter="url(#filter-2)" xlink:href="#text-1"></use>
                            <use fill="#FED69F" fill-opacity="0.692826705" stroke-opacity="1" filter="url(#filter-3)" xlink:href="#text-1"></use>
                            <use xlink:href="#text-1"></use>
                        </g>
                        <g id="Group-19" transform="translate(8.000000, 25.000000)">
                            <g id="Group-18" transform="translate(0.000000, 8.000000)" stroke-width="1.4">
                                <g id="OF">
                                    <use fill="#FED69F" fill-opacity="0.692826705" stroke-opacity="1" filter="url(#filter-5)" xlink:href="#text-4"></use>
                                    <use fill="#FED69F" fill-opacity="0.692826705" stroke-opacity="1" filter="url(#filter-6)" xlink:href="#text-4"></use>
                                    <use xlink:href="#text-4"></use>
                                </g>
                                <g id="THE">
                                    <use fill="#FED69F" fill-opacity="0.692826705" stroke-opacity="1" filter="url(#filter-8)" xlink:href="#text-7"></use>
                                    <use fill="#FED69F" fill-opacity="0.692826705" stroke-opacity="1" filter="url(#filter-9)" xlink:href="#text-7"></use>
                                    <use xlink:href="#text-7"></use>
                                </g>
                            </g>
                            <g id="DESIGN" stroke-width="2">
                                <use fill="#FED69F" fill-opacity="0.692826705" stroke-opacity="1" filter="url(#filter-11)" xlink:href="#text-10"></use>
                                <use fill="#FED69F" fill-opacity="0.692826705" stroke-opacity="1" filter="url(#filter-12)" xlink:href="#text-10"></use>
                                <use xlink:href="#text-10"></use>
                            </g>
                        </g>
                    </g>
                    <rect id="Rectangle" fill="#21253B" fill-rule="nonzero" x="0" y="185.907859" width="390.815567" height="60" rx="12"></rect>
                    <rect id="Rectangle" fill="#21253B" fill-rule="nonzero" x="0" y="180" width="390.815567" height="41" rx="2"></rect>
                    <path d="M91.78511,80.833331 L296.597293,80.833331 C299.178554,80.8315358 301.654807,81.8562564 303.481303,83.682068 C305.3078,85.5078796 306.336717,87.9852213 306.336717,90.5691057 L306.336717,131.47019 C306.336717,136.848205 301.983384,141.208997 296.610829,141.212737 L91.78511,141.212737 C86.4136502,141.212737 82.0592217,136.853883 82.0592217,131.476965 L82.0592217,90.5691057 C82.0629547,85.1937357 86.4151972,80.8370701 91.78511,80.833331 L91.78511,80.833331 Z" id="Path" fill="#21253B" fill-rule="nonzero" opacity="0.439313616"></path>
                    <path d="M184.79078,59.1637606 L199.726986,59.1637606 C206.122444,59.1637606 211.306986,64.3483032 211.306986,70.7437606 L211.306986,155.197974 C211.306986,161.593431 206.122444,166.777974 199.726986,166.777974 L184.79078,166.777974 C178.395323,166.777974 173.21078,161.593431 173.21078,155.197974 L173.21078,70.7437606 C173.21078,64.3483032 178.395323,59.1637606 184.79078,59.1637606 Z" id="Rectangle" fill="#3A3837" fill-rule="nonzero" transform="translate(192.258883, 112.970867) rotate(90.000000) translate(-192.258883, -112.970867) "></path>
                    <rect id="Rectangle" fill="#666666" fill-rule="nonzero" x="139.473773" y="94.9525745" width="105.556684" height="36.0365854" rx="10.06"></rect>
                    <path d="M139.473773,101.768293 L139.473773,124.166667 C139.473773,127.931981 142.521082,130.985421 146.282572,130.98916 L178.945854,130.98916 C182.360483,119.262258 182.712367,106.854505 179.967851,94.9525745 L146.282572,94.9525745 C142.523723,94.9563092 139.477504,98.0056235 139.473773,101.768293 Z" id="Path" fill="#21253B" fill-rule="nonzero"></path>
                    <path d="M179.967851,94.9525745 L175.954315,94.9525745 C178.883451,106.839199 178.50661,119.301637 174.864636,130.98916 L178.92555,130.98916 C182.340178,119.262258 182.692062,106.854505 179.947547,94.9525745 L179.967851,94.9525745 Z" id="Path" fill="#20243A" fill-rule="nonzero"></path>
                    <path d="M147.439932,94.9525745 L146.607445,94.9525745 C151.814004,106.503813 151.097376,119.86584 144.685279,130.792683 C144.950344,130.859308 145.219352,130.909091 145.490694,130.941734 C151.839939,119.944811 152.569045,106.576038 147.453469,94.9525745 L147.439932,94.9525745 Z" id="Path" fill="#2A2F49" fill-rule="nonzero"></path>
                    <path d="M146.309645,94.9525745 L146.309645,94.9525745 C146.042793,94.9546676 145.776226,94.970497 145.510998,95 C150.79693,106.396462 150.118048,119.670946 143.697124,130.46748 C143.940188,130.567425 144.18876,130.653382 144.441624,130.724932 C150.864555,119.824068 151.571884,106.4723 146.336717,94.9525745 L146.309645,94.9525745 Z" id="Path" fill="#2A2F49" fill-rule="nonzero"></path>
                    <path d="M145.213198,95.0406504 C144.953189,95.0804608 144.695598,95.1347455 144.441624,95.203252 C149.711862,106.358448 149.077213,119.409916 142.749577,130 C142.968017,130.132764 143.194007,130.25266 143.426396,130.359079 C149.834587,119.610381 150.501374,106.38038 145.20643,95.0406504 L145.213198,95.0406504 Z" id="Path" fill="#2A2F49" fill-rule="nonzero"></path>
                    <path d="M160.820643,94.9525745 L159.758037,94.9525745 C163.636328,106.747551 163.11457,119.549623 158.28934,130.98916 L159.392555,130.98916 C164.10757,119.52327 164.61351,106.756308 160.820643,94.9525745 Z" id="Path" fill="#2A2F49" fill-rule="nonzero"></path>
                    <path d="M159.37225,94.9525745 L158.302876,94.9525745 C162.293605,106.734759 161.7555,119.582699 156.79357,130.98916 L157.896785,130.98916 C162.75488,119.557342 163.279504,106.744007 159.37225,94.9525745 L159.37225,94.9525745 Z" id="Path" fill="#2A2F49" fill-rule="nonzero"></path>
                    <path d="M157.944162,94.9525745 L156.874788,94.9525745 C160.982146,106.722086 160.42255,119.620411 155.311337,130.98916 L156.42132,130.98916 C161.422783,119.592532 161.966276,106.731298 157.944162,94.9525745 Z" id="Path" fill="#2A2F49" fill-rule="nonzero"></path>
                    <path d="M154.404399,94.9525745 L153.450085,94.9525745 C157.878698,106.683726 157.266339,119.725531 151.758037,130.98916 L152.752961,130.98916 C158.152452,119.695621 158.748295,106.693529 154.404399,94.9525745 Z" id="Path" fill="#2A2F49" fill-rule="nonzero"></path>
                    <path d="M153.13198,94.9525745 L152.164129,94.9525745 C156.72816,106.666746 156.093123,119.77215 150.417936,130.98916 L151.426396,130.98916 C156.974546,119.736566 157.592511,106.679835 153.13198,94.9525745 L153.13198,94.9525745 Z" id="Path" fill="#2A2F49" fill-rule="nonzero"></path>
                    <path d="M151.846024,94.9525745 L150.878173,94.9525745 C155.586903,106.647731 154.928704,119.822619 149.077834,130.98916 L150.086294,130.98916 C155.801011,119.783446 156.441716,106.662787 151.846024,94.9525745 L151.846024,94.9525745 Z" id="Path" fill="#2A2F49" fill-rule="nonzero"></path>
                    <path d="M175.954315,94.9525745 L174.600677,94.9525745 C177.582029,106.83515 177.195305,119.31441 173.483926,130.98916 L174.837563,130.98916 C178.479537,119.301637 178.856378,106.839199 175.927242,94.9525745 L175.954315,94.9525745 Z" id="Path" fill="#2A2F49" fill-rule="nonzero"></path>
                    <path d="M174.174281,94.9525745 L172.820643,94.9525745 C175.892036,106.826858 175.495051,119.334003 171.676819,130.98916 L173.030457,130.98916 C176.775346,119.32043 177.16469,106.832354 174.153976,94.9525745 L174.174281,94.9525745 Z" id="Path" fill="#2A2F49" fill-rule="nonzero"></path>
                    <path d="M172.387479,94.9525745 L171.033841,94.9525745 C174.187941,106.819566 173.778323,119.353888 169.856176,130.98916 L171.209814,130.98916 C175.053094,119.338692 175.452639,106.824932 172.360406,94.9525745 L172.387479,94.9525745 Z" id="Path" fill="#2A2F49" fill-rule="nonzero"></path>
                    <path d="M238.221658,94.9525745 L230.194585,94.9525745 C226.235303,106.738203 226.768033,119.57293 231.690355,130.98916 L238.221658,130.98916 C240.028637,130.98916 241.761508,130.270148 243.0386,128.990488 C244.315693,127.710827 245.032253,125.975481 245.03046,124.166667 L245.03046,101.768293 C245.03046,99.9606518 244.313103,98.2270473 243.036206,96.9488522 C241.759308,95.6706571 240.027464,94.9525745 238.221658,94.9525745 L238.221658,94.9525745 Z" id="Path" fill="#21253B" fill-rule="nonzero"></path>
                    <polygon id="Path" fill="#21253B" fill-rule="nonzero" points="66.9932318 248.340108 81.5854484 184.552846 303.893401 184.552846 318.485618 248.340108"></polygon>
                    <polygon id="Path" fill="#202323" fill-rule="nonzero" points="66.9932318 248.340108 81.5854484 184.552846 303.893401 184.552846 318.485618 248.340108 301.138748 187.391599 84.2521151 187.391599"></polygon>
                    <path d="M134.485618,111.023035 C134.485618,120.52687 128.766096,129.094769 119.994349,132.731096 C111.222602,136.367423 101.126311,134.355969 94.4138755,127.634773 C87.70144,120.913578 85.6949393,110.806447 89.3301041,102.026835 C92.9652689,93.2472228 101.526118,87.5243598 111.020305,87.5270993 C123.980934,87.5308413 134.485618,98.049234 134.485618,111.023035 L134.485618,111.023035 Z" id="Path" fill="#4E4646" fill-rule="nonzero"></path>
                    <path d="M127.595601,121.050136 C128.096447,121.361789 128.218274,122.716802 128.191201,123.333333 L125.950931,126.01626 C125.341794,126.144986 123.988156,126.246612 123.602369,125.799458 L120.367174,128.03523 C120.64467,128.556911 120.076142,129.789973 119.737733,130.318428 L116.475465,131.436314 C115.886633,131.246612 114.661591,130.650407 114.553299,130.081301 L110.634518,130.399729 C110.634518,130.98916 109.50423,131.754743 108.949239,132.059621 L105.565144,131.436314 C105.152284,130.97561 104.380711,129.850949 104.576988,129.295393 L101.023689,127.608401 C100.712352,128.116531 99.358714,128.238482 98.7360406,128.204607 L96.0964467,125.96206 C95.9678511,125.359079 95.8663283,123.99729 96.3130288,123.611111 L94.072758,120.372629 C93.5516074,120.657182 92.319797,120.081301 91.7986464,119.749322 L90.6345178,116.48374 C90.8240271,115.894309 91.4128596,114.668022 91.9881557,114.552846 L91.6632826,110.630081 C91.0744501,110.630081 90.3096447,109.498645 90.0118443,108.949864 L90.6277496,105.562331 C91.0879865,105.149051 92.2115059,104.383469 92.7732657,104.573171 L94.4517766,101.01626 C93.9509306,100.704607 93.8291032,99.3495935 93.856176,98.7330623 L96.0964467,96.0840108 C96.7055838,95.9552846 98.0592217,95.8536585 98.4450085,96.300813 L101.680203,94.0582656 C101.402707,93.5433604 101.971235,92.303523 102.309645,91.7818428 L105.571912,90.6165312 C106.160745,90.8062331 107.385787,91.402439 107.494078,91.9715447 L111.419628,91.6531165 C111.419628,91.0569106 112.543147,90.298103 113.098139,89.9932249 L116.482234,90.6165312 C116.901861,91.0704607 117.666667,92.201897 117.470389,92.7574526 L121.023689,94.4376694 C121.335025,93.9363144 122.688663,93.8143631 123.311337,93.8482385 L125.950931,96.0907859 C126.079526,96.6937669 126.181049,98.0555556 125.734349,98.4417344 L127.974619,101.680217 C128.49577,101.395664 129.72758,101.971545 130.248731,102.303523 L131.41286,105.569106 C131.22335,106.158537 130.634518,107.384824 130.059222,107.5 L130.384095,111.422764 C130.972927,111.422764 131.737733,112.554201 132.042301,113.102981 L131.419628,116.490515 C130.959391,116.903794 129.835871,117.669377 129.28088,117.479675 L127.595601,121.050136 Z M117.829103,102.98103 C114.582743,100.21894 109.99365,99.686988 106.202613,101.633327 C102.411575,103.579667 100.165563,107.620798 100.51233,111.871555 C100.859097,116.122312 103.730317,119.745143 107.786581,121.050016 C111.842845,122.354889 116.284923,121.084697 119.040609,117.831978 C120.847549,115.701903 121.735057,112.940475 121.50785,110.155307 C121.280642,107.370138 119.957335,104.78943 117.829103,102.98103 Z" id="Shape" fill="#90A0B2" fill-rule="nonzero"></path>
                    <path d="M106.099831,130.501355 C105.868992,130.211797 105.686173,129.886964 105.558376,129.539295 L105.829103,128.766938 L100.583756,126.294038 L100.150592,126.971545 C99.8016943,127.090847 99.4363186,127.154852 99.0676819,127.161247 L97.0033841,125.406504 C96.9425492,125.043184 96.9425492,124.672263 97.0033841,124.308943 L97.6192893,123.766938 L94.3367174,119.02439 L93.6192893,119.410569 C93.2548328,119.340559 92.9032936,119.214882 92.5769882,119.03794 L91.7038917,116.531165 C91.8426287,116.187153 92.0344751,115.867084 92.2724196,115.582656 L93.071066,115.426829 L92.6040609,109.668022 L91.78511,109.668022 C91.5034748,109.426606 91.2633889,109.140498 91.0744501,108.821138 L91.5617597,106.151762 C91.8517432,105.923468 92.1761573,105.742801 92.5228426,105.616531 L93.2944162,105.880759 L95.7580372,100.657182 L95.0812183,100.230352 C94.9593002,99.8815832 94.8930615,99.5157573 94.8849408,99.1463415 L96.6379019,97.0731707 C96.8272479,97.0620334 97.0170838,97.0620334 97.2064298,97.0731707 C97.3862983,97.0666116 97.5662134,97.0848494 97.7411168,97.1273713 L98.2758037,97.7371274 L103.013536,94.4512195 L102.62775,93.7330623 C102.695773,93.3698616 102.821447,93.0199046 103,92.696477 L105.551607,91.7818428 C105.896343,91.9155559 106.216536,92.1055778 106.499154,92.3441734 L106.654822,93.1504065 L112.407783,92.6761518 L112.407783,91.8563686 C112.652052,91.5897244 112.934963,91.3613387 113.247039,91.1788618 L115.913706,91.6666667 C116.145541,91.9555504 116.328456,92.2805538 116.455161,92.6287263 L116.184433,93.401084 L121.402707,95.8739837 L121.835871,95.196477 C122.175892,95.0236627 122.541575,94.9069827 122.918782,94.8509485 L124.98308,96.6056911 C125.04036,96.9692981 125.04036,97.339645 124.98308,97.703252 L124.367174,98.2452575 L127.649746,102.987805 L128.367174,102.601626 C128.732682,102.667736 129.084824,102.793629 129.409475,102.974255 L130.323181,105.528455 C130.184444,105.872468 129.992598,106.192537 129.754653,106.476965 L128.956007,106.632791 L129.423012,112.391599 L130.241963,112.391599 C130.511541,112.635675 130.740076,112.921634 130.918782,113.238482 L130.431472,115.907859 C130.14241,116.137535 129.817762,116.318332 129.470389,116.443089 L128.698816,116.178862 L126.302876,121.443089 L126.979695,121.869919 C127.101614,122.218688 127.167852,122.584514 127.175973,122.95393 L125.423012,125.0271 C125.23433,125.049539 125.044493,125.060851 124.854484,125.060976 C124.674615,125.067535 124.4947,125.049297 124.319797,125.006775 L123.78511,124.390244 L119.047377,127.682927 L119.433164,128.401084 C119.36514,128.764285 119.239467,129.114242 119.060914,129.437669 L116.509306,130.352304 C116.166704,130.214235 115.847172,130.024605 115.56176,129.789973 L115.406091,128.98374 L109.65313,129.457995 L109.65313,130.277778 C109.408792,130.544347 109.125893,130.772723 108.813875,130.955285 L106.099831,130.501355 Z M111.020305,99.4579533 C105.419229,99.4657646 100.631494,103.496334 99.6635117,109.018743 C98.6955299,114.541153 101.8265,119.962555 107.090359,121.878631 C112.354218,123.794707 118.232692,121.652796 121.034448,116.797891 C123.836204,111.942986 122.753122,105.775404 118.465313,102.168022 C116.382339,100.411 113.744197,99.4507005 111.020305,99.4579533 L111.020305,99.4579533 Z" id="Shape" fill="#5B5656" fill-rule="nonzero"></path>
                    <path d="M117.829103,102.98103 C114.582743,100.21894 109.99365,99.686988 106.202613,101.633327 C102.411575,103.579667 100.165563,107.620798 100.51233,111.871555 C100.859097,116.122312 103.730317,119.745143 107.786581,121.050016 C111.842845,122.354889 116.284923,121.084697 119.040609,117.831978 C120.847549,115.701903 121.735057,112.940475 121.50785,110.155307 C121.280642,107.370138 119.957335,104.78943 117.829103,102.98103 Z" id="Path" fill="#FFF7EC" fill-rule="nonzero"></path>
                    <path d="M111.013536,120.52846 C106.569661,120.532844 102.719747,117.445215 101.754803,113.102958 C100.78986,108.7607 102.969157,104.330526 106.995836,102.448747 C111.022514,100.566968 115.814656,101.739195 118.520548,105.267858 C121.22644,108.796521 121.119044,113.733512 118.262267,117.140921 C116.463996,119.285803 113.810848,120.525693 111.013536,120.52846 Z" id="Path" fill="#000000" fill-rule="nonzero"></path>
                    <path d="M301.890017,111.023035 C301.890017,120.52687 296.170495,129.094769 287.398748,132.731096 C278.627002,136.367423 268.53071,134.355969 261.818275,127.634773 C255.105839,120.913578 253.099339,110.806447 256.734503,102.026835 C260.369668,93.2472228 268.930518,87.5243598 278.424704,87.5270993 C291.385333,87.5308413 301.890017,98.049234 301.890017,111.023035 L301.890017,111.023035 Z" id="Path" fill="#4E4646" fill-rule="nonzero"></path>
                    <path d="M295,121.050136 C295.500846,121.361789 295.622673,122.716802 295.595601,123.333333 L293.35533,126.01626 C292.746193,126.144986 291.392555,126.246612 291.006768,125.799458 L287.771574,128.03523 C288.049069,128.556911 287.480541,129.789973 287.142132,130.318428 L283.879865,131.436314 C283.2978,131.246612 282.072758,130.650407 281.957699,130.081301 L278.038917,130.399729 C278.038917,130.98916 276.908629,131.754743 276.360406,132.059621 L272.976311,131.436314 C272.563452,130.97561 271.798646,129.850949 271.988156,129.295393 L268.434856,127.615176 C268.123519,128.123306 266.769882,128.245257 266.147208,128.211382 L263.507614,125.968835 C263.379019,125.365854 263.277496,124.004065 263.724196,123.617886 L261.483926,120.379404 C260.962775,120.663957 259.730964,120.088076 259.209814,119.756098 L258.045685,116.490515 C258.235195,115.901084 258.824027,114.674797 259.399323,114.559621 L259.07445,110.636856 C258.485618,110.636856 257.720812,109.50542 257.423012,108.95664 L258.038917,105.569106 C258.499154,105.155827 259.622673,104.390244 260.184433,104.579946 L261.862944,101.023035 C261.362098,100.711382 261.240271,99.3563686 261.267343,98.7398374 L263.514382,96.0907859 C264.116751,95.9620596 265.470389,95.8604336 265.856176,96.3075881 L269.091371,94.0650407 C268.813875,93.5501355 269.382403,92.3102981 269.720812,91.7886179 L272.98308,90.6233062 C273.571912,90.8130081 274.796954,91.4092141 274.912014,91.9783198 L278.830795,91.6598916 C278.830795,91.0636856 279.961083,90.304878 280.509306,90 L283.893401,90.6233062 C284.313029,91.0772358 285.077834,92.2086721 284.881557,92.7642276 L288.441624,94.4444444 C288.746193,93.9430894 290.106599,93.8211382 290.722504,93.8550136 L293.362098,96.097561 C293.490694,96.700542 293.592217,98.0623306 293.145516,98.4485095 L295.385787,101.686992 C295.906937,101.402439 297.138748,101.97832 297.659898,102.310298 L298.830795,105.575881 C298.634518,106.165312 298.045685,107.391599 297.477157,107.506775 L297.80203,111.429539 C298.390863,111.429539 299.155668,112.560976 299.460237,113.109756 L298.837563,116.49729 C298.377327,116.910569 297.253807,117.676152 296.698816,117.48645 L295,121.050136 Z M285.233503,102.98103 C281.985844,100.220579 277.396584,99.690847 273.606527,101.638944 C269.81647,103.58704 267.572368,107.629134 267.921054,111.879663 C268.269739,116.130191 271.142511,119.751677 275.199273,121.054763 C279.256035,122.357849 283.697489,121.08579 286.451777,117.831978 C288.257919,115.701048 289.144274,112.93909 288.915795,110.15389 C288.687315,107.36869 287.362723,104.788473 285.233503,102.98103 L285.233503,102.98103 Z" id="Shape" fill="#90A0B2" fill-rule="nonzero"></path>
                    <path d="M273.50423,130.501355 C273.277477,130.210208 273.097112,129.885679 272.969543,129.539295 L273.233503,128.766938 L268.015228,126.294038 L267.582064,126.971545 C267.233166,127.090847 266.867791,127.154852 266.499154,127.161247 L264.434856,125.406504 C264.377576,125.042897 264.377576,124.67255 264.434856,124.308943 L265.050761,123.766938 L261.76819,119.02439 L261.050761,119.410569 C260.68823,119.341371 260.338799,119.21563 260.015228,119.03794 L259.115059,116.531165 C259.249305,116.186405 259.439072,115.865992 259.676819,115.582656 L260.475465,115.426829 L260.00846,109.668022 L259.189509,109.668022 C258.919931,109.423945 258.691396,109.137987 258.51269,108.821138 L259,106.151762 C259.289984,105.923468 259.614398,105.742801 259.961083,105.616531 L260.732657,105.880759 L263.196277,100.657182 L262.519459,100.230352 C262.39754,99.8815832 262.331302,99.5157573 262.323181,99.1463415 L264.076142,97.0731707 C264.265494,97.0622473 264.455318,97.0622473 264.64467,97.0731707 C264.824539,97.0666116 265.004454,97.0848494 265.179357,97.1273713 L265.714044,97.7371274 L270.451777,94.4512195 L270.059222,93.7330623 C270.130433,93.3707359 270.255933,93.0212619 270.431472,92.696477 L272.989848,91.7818428 C273.331875,91.9168836 273.649632,92.1068163 273.930626,92.3441734 L274.086294,93.1504065 L279.846024,92.6761518 L279.846024,91.8563686 C280.090292,91.5897244 280.373203,91.3613387 280.685279,91.1788618 L283.351946,91.6666667 C283.583781,91.9555504 283.766696,92.2805538 283.893401,92.6287263 L283.629442,93.401084 L288.840948,95.8739837 L289.274112,95.196477 C289.6232,95.0779194 289.988459,95.0139342 290.357022,95.0067751 L292.428088,96.7615176 C292.48616,97.1250621 292.48616,97.4955341 292.428088,97.8590786 L291.812183,98.401084 L295.101523,103.143631 L295.778342,102.757453 C296.14385,102.823563 296.495992,102.949456 296.820643,103.130081 L297.734349,105.684282 C297.595612,106.028295 297.403765,106.348364 297.165821,106.632791 L296.367174,106.788618 L296.840948,112.547425 L297.65313,112.547425 C297.934765,112.788842 298.174851,113.074949 298.36379,113.394309 L297.876481,116.063686 C297.588754,116.291642 297.266621,116.472312 296.922166,116.598916 L296.143824,116.334688 L293.680203,121.558266 L294.357022,121.985095 C294.47894,122.333864 294.545179,122.69969 294.553299,123.069106 L292.800338,125.0271 C292.611656,125.049539 292.421819,125.060851 292.23181,125.060976 C292.05197,125.066704 291.872166,125.048477 291.697124,125.006775 L291.162437,124.390244 L286.424704,127.682927 L286.810491,128.401084 C286.742467,128.764285 286.616793,129.114242 286.43824,129.437669 L283.886633,130.352304 C283.544851,130.212578 283.225557,130.02309 282.939086,129.789973 L282.783418,128.98374 L277.030457,129.457995 L277.030457,130.277778 C276.786118,130.544347 276.503219,130.772723 276.191201,130.955285 L273.50423,130.501355 Z M278.424704,99.4579533 C272.823629,99.4657646 268.035893,103.496334 267.067911,109.018743 C266.099929,114.541153 269.2309,119.962555 274.494758,121.878631 C279.758617,123.794707 285.637091,121.652796 288.438848,116.797891 C291.240604,111.942986 290.157521,105.775404 285.869712,102.168022 C283.786738,100.411 281.148596,99.4507005 278.424704,99.4579533 Z" id="Shape" fill="#5B5656" fill-rule="nonzero"></path>
                    <path d="M285.233503,102.98103 C281.985844,100.220579 277.396584,99.690847 273.606527,101.638944 C269.81647,103.58704 267.572368,107.629134 267.921054,111.879663 C268.269739,116.130191 271.142511,119.751677 275.199273,121.054763 C279.256035,122.357849 283.697489,121.08579 286.451777,117.831978 C288.257919,115.701048 289.144274,112.93909 288.915795,110.15389 C288.687315,107.36869 287.362723,104.788473 285.233503,102.98103 L285.233503,102.98103 Z" id="Path" fill="#FFF7EC" fill-rule="nonzero"></path>
                    <path d="M278.417936,120.52846 C273.97406,120.532844 270.124146,117.445215 269.159203,113.102958 C268.19426,108.7607 270.373556,104.330526 274.400235,102.448747 C278.426914,100.566968 283.219055,101.739195 285.924947,105.267858 C288.63084,108.796521 288.523443,113.733512 285.666667,117.140921 C283.868396,119.285803 281.215247,120.525693 278.417936,120.52846 L278.417936,120.52846 Z" id="Path" fill="#000000" fill-rule="nonzero"></path>
                    <path d="M230.194585,94.9525745 C226.235303,106.738203 226.768033,119.57293 231.690355,130.98916 L238.221658,130.98916 C238.536398,130.987317 238.850674,130.964684 239.162437,130.921409 C234.70618,119.389259 234.466448,106.651334 238.485618,94.9593496 L230.194585,94.9593496 L230.194585,94.9525745 Z" id="Path" fill-opacity="0.397481425" fill="#393F60" fill-rule="nonzero"></path>
                    <path d="M239.162437,130.921409 C239.503323,130.873295 239.840335,130.800843 240.170897,130.704607 C235.705168,119.289266 235.465106,106.651558 239.494078,95.0745257 C239.152011,95.0119733 238.805986,94.9734871 238.458545,94.9593496 C234.439375,106.651334 234.679107,119.389259 239.135364,130.921409 L239.162437,130.921409 Z" id="Path" fill-opacity="0.397481425" fill="#393F60" fill-rule="nonzero"></path>
                    <path d="M240.489002,130.602981 C240.808627,130.490269 241.118703,130.352066 241.416244,130.189702 C237.072171,119.058893 236.85368,106.738845 240.800338,95.4607046 C240.488349,95.3325384 240.167058,95.2283525 239.839255,95.1490515 C235.827366,106.668623 236.067455,119.24525 240.516074,130.602981 L240.489002,130.602981 Z" id="Path" fill-opacity="0.397481425" fill="#393F60" fill-rule="nonzero"></path>
                    <path d="M241.714044,130.0271 C242.013217,129.845598 242.29829,129.641768 242.566836,129.417344 C238.470853,118.724478 238.274325,106.927973 242.011844,96.104336 C241.724116,95.9139511 241.423311,95.7441517 241.111675,95.596206 C237.205455,106.778038 237.419087,118.989039 241.714044,130.0271 L241.714044,130.0271 Z" id="Path" fill-opacity="0.397481425" fill="#393F60" fill-rule="nonzero"></path>
                    <path d="M244.265651,127.317073 C244.470941,126.901529 244.632007,126.465527 244.746193,126.01626 C241.910262,117.250151 241.796985,107.829186 244.42132,98.99729 C244.256916,98.6168621 244.055134,98.2537391 243.818951,97.9132791 C240.776003,107.497071 240.923259,117.810697 244.238579,127.303523 L244.265651,127.317073 Z" id="Path" fill-opacity="0.397481425" fill="#393F60" fill-rule="nonzero"></path>
                    <path d="M244.908629,125.46748 C244.990675,125.038769 245.031471,124.603172 245.030475,124.166667 L245.030475,122.567751 C243.338442,115.630338 243.338442,108.387277 245.030475,101.449864 C245.001226,100.769828 244.868861,100.098194 244.637902,99.4579946 C242.182309,107.967733 242.278805,117.012181 244.915398,125.46748 L244.908629,125.46748 Z" id="Path" fill-opacity="0.397481425" fill="#393F60" fill-rule="nonzero"></path>
                    <path d="M245.030457,121.273713 L245.030457,114.688347 C244.98308,113.814363 244.949239,112.926829 244.949239,112.03252 C244.949239,111.138211 244.98308,110.250678 245.030457,109.369919 L245.030457,102.784553 C243.731007,108.878971 243.731007,115.179294 245.030457,121.273713 Z" id="Path" fill-opacity="0.397481425" fill="#393F60" fill-rule="nonzero"></path>
                    <line x1="1.13686838e-13" y1="150" x2="390.808799" y2="150" id="Path-6" stroke="#979797"></line>
                    <rect id="Rectangle" fill="#FE7B7E" x="0" y="103" width="83" height="4"></rect>
                    <rect id="Rectangle" fill="#FE7B7E" opacity="0.986537388" x="0" y="119" width="83" height="8"></rect>
                    <rect id="Rectangle" fill="#FE7B7E" x="306" y="103" width="85" height="4"></rect>
                    <path d="M-4.97379915e-14,88 L82.4037822,88 C82.2987453,88.1049731 82.2188904,88.3954716 82.1642174,88.8714956 C82.1095443,89.3475195 82.0745458,90.057021 82.0592217,91 L-4.97379915e-14,91 L-4.97379915e-14,88 Z" id="Rectangle" fill="#FE7B7E"></path>
                    <path d="M306,88 L391,88 C390.891654,88.1049731 390.809283,88.3954716 390.752887,88.8714956 C390.696492,89.3475195 390.660391,90.057021 390.644584,91 L306,91 L306,88 Z" id="Rectangle" fill="#FE7B7E" transform="translate(348.500000, 89.500000) scale(-1, 1) translate(-348.500000, -89.500000) "></path>
                    <rect id="Rectangle" fill="#FE7B7E" opacity="0.986537388" x="306" y="119" width="85" height="8"></rect>
                    <rect id="Rectangle" fill="#FE7B7E" opacity="0.986537388" x="0" y="132" width="83" height="9"></rect>
                    <rect id="Rectangle" fill="#FE7B7E" opacity="0.986537388" x="306" y="132" width="85" height="9"></rect>
                    <rect id="Rectangle" fill="#FE7B7E" x="0" y="74" width="391" height="2"></rect>
                    <line x1="1.13686838e-13" y1="148" x2="390.808799" y2="148" id="Path-6" stroke="#F5E9E9" stroke-width="4"></line>
                    <rect id="Rectangle" fill="#FE7B7E" x="0" y="146" width="391" height="12"></rect>
                    <rect id="Rectangle" fill="#FE7B7E" x="0" y="162" width="391" height="18"></rect>
                    <g id="Group" transform="translate(68.000000, 188.000000)" stroke="#5B5656">
                        <line x1="15" y1="1.46747967" x2="235" y2="1.46747967" id="Path-5"></line>
                        <line x1="13.5" y1="7.96747967" x2="237" y2="7.46747967" id="Path-5"></line>
                        <line x1="11" y1="14.4674797" x2="239" y2="14.4674797" id="Path-5"></line>
                        <line x1="9" y1="20.4674797" x2="241" y2="20.4674797" id="Path-5"></line>
                        <line x1="7" y1="27.4674797" x2="243" y2="26.4674797" id="Path-5"></line>
                        <line x1="6" y1="32.4674797" x2="244" y2="33.4674797" id="Path-5"></line>
                        <line x1="4" y1="40.4674797" x2="246.487069" y2="39.9674797" id="Path-5"></line>
                        <line x1="2" y1="46.4674797" x2="249" y2="46.4674797" id="Path-5"></line>
                        <line x1="0" y1="51.4674797" x2="251" y2="52.4674797" id="Path-5"></line>
                    </g>
                    <g id="Path" fill-rule="nonzero">
                        <use fill="black" fill-opacity="1" filter="url(#filter-14)" xlink:href="#path-13"></use>
                        <use stroke-opacity="0.31763549" stroke="#82E1EF" stroke-width="1" fill="#21253B" xlink:href="#path-13"></use>
                    </g>
                    <g id="Path" fill-rule="nonzero">
                        <use fill="black" fill-opacity="1" filter="url(#filter-16)" xlink:href="#path-15"></use>
                        <use stroke-opacity="0.31763549" stroke="#82E1EF" stroke-width="1" fill="#21253B" xlink:href="#path-15"></use>
                    </g>
                    <g id="Path" fill-rule="nonzero">
                        <use fill="black" fill-opacity="1" filter="url(#filter-18)" xlink:href="#path-17"></use>
                        <use stroke-opacity="0.31763549" stroke="#82E1EF" stroke-width="1" fill="#21253B" xlink:href="#path-17"></use>
                    </g>
                    <g id="Path" fill-rule="nonzero">
                        <use fill="black" fill-opacity="1" filter="url(#filter-20)" xlink:href="#path-19"></use>
                        <use stroke-opacity="0.31763549" stroke="#82E1EF" stroke-width="1" fill="#21253B" xlink:href="#path-19"></use>
                    </g>
                    <g id="Group-2" transform="translate(140.000000, 216.000000)" fill-rule="nonzero">
                        <path d="M98,33 L0,33 L9.49743874,6.24142171 C10.8195714,2.50167313 14.3745342,-0.000771737299 18.3639762,0 L79.6495916,0 C83.6390336,-0.000771737299 87.1939963,2.50167313 88.516129,6.24142171 L98,33 Z" id="Path" fill="#21253B"></path>
                        <path d="M88.5285946,6.24142171 C87.210086,2.50167313 83.6648677,-0.000771737299 79.6863612,0 L23,0 C42.2337182,1.81311291 63.5105539,4.41482859 70.3570269,7.50857857 C76.5405015,10.3125001 80.7485116,21.6225491 83.4884539,33 L98,33 L88.5285946,6.24142171 Z" id="Path" fill="#FECE8C" style="mix-blend-mode: multiply;"></path>
                        <path d="M9.49612403,12.0177697 C10.8134791,8.27270171 14.3690119,5.76410264 18.3614341,5.76286779 L79.6385659,5.76286779 C83.6274556,5.76209588 87.1819263,8.26454075 88.503876,12.0042893 L95.9651163,33 L98,33 L88.503876,6.24142171 C87.1819263,2.50167313 83.6274556,-0.000771737299 79.6385659,0 L18.3614341,0 C14.3725444,-0.000771737299 10.8180737,2.50167313 9.49612403,6.24142171 L0,33 L2.03488372,33 L9.49612403,12.0177697 Z" id="Path" fill="#3F414E"></path>
                    </g>
                    <g id="Path" fill-rule="nonzero">
                        <use fill="black" fill-opacity="1" filter="url(#filter-22)" xlink:href="#path-21"></use>
                        <use stroke-opacity="0.31763549" stroke="#82E1EF" stroke-width="1" fill="#21253B" xlink:href="#path-21"></use>
                    </g>
                    <text id="awesome-mix-vol.1" font-family="Weigl" font-size="28" font-weight="normal" letter-spacing="2.8" fill="#21253B" fill-opacity="0.920044799">
                        <tspan x="70" y="179">AWESOME MIX VOL.1</tspan>
                    </text>
                    <g id="Group-5" transform="translate(4.000000, 213.000000)" fill-rule="nonzero">
                        <path d="M17.7597319,8.88889148 C17.7597319,13.7980893 13.7840785,17.7777804 8.87986464,17.7777804 C3.97565082,17.7777804 -5.32907052e-15,13.7980893 -5.32907052e-15,8.88889148 C-5.32907052e-15,3.9796937 3.97565082,8.8817842e-15 8.87986464,8.8817842e-15 C11.2355018,-0.00179674808 13.4951746,0.934130673 15.1608621,2.60151091 C16.8265495,4.26889115 17.7615268,6.53086042 17.7597319,8.88889148 Z" id="Path" fill="#82E1EF" opacity="0.272600446"></path>
                        <path d="M10.2267343,7.81165571 L10.2267343,4.42412183 C9.90573188,3.89427017 9.53641781,3.3953029 9.12351946,2.93360693 C8.71720966,3.39901376 8.35045199,3.89758589 8.02707276,4.42412183 L8.02707276,5.9214118 L8.02707276,7.81165571 L4.77834179,7.81165571 C4.29354841,8.13648383 3.84034108,8.50622317 3.42470389,8.91599175 C3.8438341,9.32184181 4.29667769,9.69128441 4.77834179,10.0203278 L6.1319797,10.0203278 L8.02707276,10.0203278 L8.02707276,13.4078617 C8.39255499,13.9024416 8.70389171,14.4037966 9.11675127,14.8983766 C9.50831531,14.4213029 9.87431216,13.9237651 10.213198,13.4078617 L10.213198,10.0203278 L12.9746193,10.0203278 C13.428088,9.65447413 13.8815567,9.34282102 14.3282572,8.92954189 C13.9005984,8.53461709 13.4533307,8.16151526 12.9881557,7.81165571 L10.2267343,7.81165571 Z" id="Path" fill="#FE7B7E" opacity="0.380766369"></path>
                    </g>
                    <g id="Group-4" transform="translate(365.664716, 214.971545)" fill-rule="nonzero">
                        <path d="M17.7599907,8.88889149 C17.7599907,12.4847278 15.5957444,15.726367 12.2767354,17.1018002 C8.95772643,18.4772334 5.13780787,17.7154952 2.59871758,15.1718858 C0.059627294,12.6282764 -0.698424703,8.80389611 0.678142407,5.48256385 C2.05470952,2.16123158 5.29470701,-0.00273812849 8.88689164,-8.52651283e-14 C11.2413563,-8.52651283e-14 13.4992894,0.936723327 15.1635124,2.6039084 C16.8277355,4.27109347 17.761784,6.5320348 17.7599907,8.88889149 L17.7599907,8.88889149 Z" id="Path" fill="#82E1EF" opacity="0.272600446"></path>
                        <path d="M12.9884145,7.79133051 L10.2337614,7.79133051 L10.2337614,4.40379664 C9.9083547,3.87479313 9.53933093,3.37395182 9.13054646,2.90650667 C8.71963607,3.37223664 8.35047334,3.87326654 8.02733157,4.40379664 L8.02733157,7.79133051 L4.76506423,7.79133051 C4.28300367,8.11984203 3.83011613,8.48932048 3.41142633,8.89566656 C3.83194867,9.29994498 4.28465701,9.66927723 4.76506423,10.0000026 L6.11870213,10.0000026 L8.0137952,10.0000026 L8.0137952,13.3875365 C8.38604562,13.8821164 8.69061415,14.3834714 9.1102419,14.8780514 C9.55017421,14.3834714 9.83443817,13.8821164 10.2066886,13.3875365 L10.2066886,10.0000026 L12.9613417,10.0000026 C13.4148104,9.63414894 13.8750473,9.32249583 14.3149796,8.90921669 C13.9021201,8.44173702 13.4418832,8.16395924 12.9884145,7.79133051 Z" id="Path" fill="#FE7B7E" opacity="0.380766369"></path>
                    </g>
                    <g id="Group-5" transform="translate(6.000000, 7.000000)" fill-rule="nonzero">
                        <path d="M17.7597319,8.88889148 C17.7597319,13.7980893 13.7840785,17.7777804 8.87986464,17.7777804 C3.97565082,17.7777804 -5.32907052e-15,13.7980893 -5.32907052e-15,8.88889148 C-5.32907052e-15,3.9796937 3.97565082,8.8817842e-15 8.87986464,8.8817842e-15 C11.2355018,-0.00179674808 13.4951746,0.934130673 15.1608621,2.60151091 C16.8265495,4.26889115 17.7615268,6.53086042 17.7597319,8.88889148 Z" id="Path" fill="#82E1EF" opacity="0.272600446"></path>
                        <path d="M10.2267343,7.81165571 L10.2267343,4.42412183 C9.90573188,3.89427017 9.53641781,3.3953029 9.12351946,2.93360693 C8.71720966,3.39901376 8.35045199,3.89758589 8.02707276,4.42412183 L8.02707276,5.9214118 L8.02707276,7.81165571 L4.77834179,7.81165571 C4.29354841,8.13648383 3.84034108,8.50622317 3.42470389,8.91599175 C3.8438341,9.32184181 4.29667769,9.69128441 4.77834179,10.0203278 L6.1319797,10.0203278 L8.02707276,10.0203278 L8.02707276,13.4078617 C8.39255499,13.9024416 8.70389171,14.4037966 9.11675127,14.8983766 C9.50831531,14.4213029 9.87431216,13.9237651 10.213198,13.4078617 L10.213198,10.0203278 L12.9746193,10.0203278 C13.428088,9.65447413 13.8815567,9.34282102 14.3282572,8.92954189 C13.9005984,8.53461709 13.4533307,8.16151526 12.9881557,7.81165571 L10.2267343,7.81165571 Z" id="Path" fill="#FE7B7E" opacity="0.380766369"></path>
                    </g>
                    <g id="Group-4" transform="translate(366.664716, 7.971545)" fill-rule="nonzero">
                        <path d="M17.7599907,8.88889149 C17.7599907,12.4847278 15.5957444,15.726367 12.2767354,17.1018002 C8.95772643,18.4772334 5.13780787,17.7154952 2.59871758,15.1718858 C0.059627294,12.6282764 -0.698424703,8.80389611 0.678142407,5.48256385 C2.05470952,2.16123158 5.29470701,-0.00273812849 8.88689164,-8.52651283e-14 C11.2413563,-8.52651283e-14 13.4992894,0.936723327 15.1635124,2.6039084 C16.8277355,4.27109347 17.761784,6.5320348 17.7599907,8.88889149 L17.7599907,8.88889149 Z" id="Path" fill="#82E1EF" opacity="0.272600446"></path>
                        <path d="M12.9884145,7.79133051 L10.2337614,7.79133051 L10.2337614,4.40379664 C9.9083547,3.87479313 9.53933093,3.37395182 9.13054646,2.90650667 C8.71963607,3.37223664 8.35047334,3.87326654 8.02733157,4.40379664 L8.02733157,7.79133051 L4.76506423,7.79133051 C4.28300367,8.11984203 3.83011613,8.48932048 3.41142633,8.89566656 C3.83194867,9.29994498 4.28465701,9.66927723 4.76506423,10.0000026 L6.11870213,10.0000026 L8.0137952,10.0000026 L8.0137952,13.3875365 C8.38604562,13.8821164 8.69061415,14.3834714 9.1102419,14.8780514 C9.55017421,14.3834714 9.83443817,13.8821164 10.2066886,13.3875365 L10.2066886,10.0000026 L12.9613417,10.0000026 C13.4148104,9.63414894 13.8750473,9.32249583 14.3149796,8.90921669 C13.9021201,8.44173702 13.4418832,8.16395924 12.9884145,7.79133051 Z" id="Path" fill="#FE7B7E" opacity="0.380766369"></path>
                    </g>
                </g>
            </g>
        </g>
    </g>
</svg>